<?xml version="1.0" encoding="UTF-8" ?>
<svg version="1.1" width="100" height="100" xmlns="http://www.w3.org/2000/svg" shape-rendering="crispEdges">
<rect x="31" y="41" width="4" height="1" fill="#639BFF" />
<rect x="63" y="41" width="4" height="1" fill="#D77BBA" />
<rect x="30" y="42" width="2" height="1" fill="#639BFF" />
<rect x="32" y="42" width="2" height="6" fill="#DF7126" />
<rect x="34" y="42" width="2" height="1" fill="#639BFF" />
<rect x="62" y="42" width="2" height="1" fill="#D77BBA" />
<rect x="64" y="42" width="2" height="6" fill="#DF7126" />
<rect x="66" y="42" width="2" height="1" fill="#D77BBA" />
<rect x="29" y="43" width="2" height="1" fill="#639BFF" />
<rect x="31" y="43" width="1" height="4" fill="#DF7126" />
<rect x="34" y="43" width="1" height="4" fill="#DF7126" />
<rect x="35" y="43" width="2" height="1" fill="#639BFF" />
<rect x="61" y="43" width="2" height="1" fill="#D77BBA" />
<rect x="63" y="43" width="1" height="4" fill="#DF7126" />
<rect x="66" y="43" width="1" height="4" fill="#DF7126" />
<rect x="67" y="43" width="2" height="1" fill="#D77BBA" />
<rect x="29" y="44" width="1" height="3" fill="#639BFF" />
<rect x="30" y="44" width="1" height="2" fill="#DF7126" />
<rect x="35" y="44" width="1" height="2" fill="#DF7126" />
<rect x="36" y="44" width="1" height="3" fill="#639BFF" />
<rect x="61" y="44" width="1" height="3" fill="#D77BBA" />
<rect x="62" y="44" width="1" height="2" fill="#DF7126" />
<rect x="67" y="44" width="1" height="2" fill="#DF7126" />
<rect x="68" y="44" width="1" height="3" fill="#D77BBA" />
<rect x="30" y="46" width="1" height="2" fill="#639BFF" />
<rect x="35" y="46" width="1" height="2" fill="#639BFF" />
<rect x="37" y="46" width="2" height="3" fill="#6ABE30" />
<rect x="59" y="46" width="2" height="3" fill="#6ABE30" />
<rect x="62" y="46" width="1" height="2" fill="#D77BBA" />
<rect x="67" y="46" width="1" height="2" fill="#D77BBA" />
<rect x="31" y="47" width="1" height="2" fill="#639BFF" />
<rect x="34" y="47" width="1" height="2" fill="#639BFF" />
<rect x="36" y="47" width="1" height="2" fill="#6ABE30" />
<rect x="39" y="47" width="1" height="4" fill="#6ABE30" />
<rect x="58" y="47" width="1" height="4" fill="#6ABE30" />
<rect x="61" y="47" width="1" height="2" fill="#6ABE30" />
<rect x="63" y="47" width="1" height="2" fill="#D77BBA" />
<rect x="66" y="47" width="1" height="2" fill="#D77BBA" />
<rect x="32" y="48" width="2" height="1" fill="#639BFF" />
<rect x="40" y="48" width="1" height="3" fill="#6ABE30" />
<rect x="57" y="48" width="1" height="3" fill="#6ABE30" />
<rect x="64" y="48" width="2" height="1" fill="#D77BBA" />
<rect x="26" y="49" width="4" height="1" fill="#FBF236" />
<rect x="38" y="49" width="1" height="1" fill="#6ABE30" />
<rect x="59" y="49" width="1" height="1" fill="#6ABE30" />
<rect x="67" y="49" width="4" height="1" fill="#FFFFFF" />
<rect x="25" y="50" width="2" height="1" fill="#FBF236" />
<rect x="27" y="50" width="2" height="6" fill="#DF7126" />
<rect x="29" y="50" width="2" height="1" fill="#FBF236" />
<rect x="41" y="50" width="1" height="4" fill="#6ABE30" />
<rect x="56" y="50" width="1" height="4" fill="#6ABE30" />
<rect x="66" y="50" width="2" height="1" fill="#FFFFFF" />
<rect x="68" y="50" width="2" height="6" fill="#DF7126" />
<rect x="70" y="50" width="2" height="1" fill="#FFFFFF" />
<rect x="24" y="51" width="2" height="1" fill="#FBF236" />
<rect x="26" y="51" width="1" height="4" fill="#DF7126" />
<rect x="29" y="51" width="1" height="4" fill="#DF7126" />
<rect x="30" y="51" width="2" height="1" fill="#FBF236" />
<rect x="42" y="51" width="2" height="5" fill="#6ABE30" />
<rect x="54" y="51" width="2" height="5" fill="#6ABE30" />
<rect x="65" y="51" width="2" height="1" fill="#FFFFFF" />
<rect x="67" y="51" width="1" height="4" fill="#DF7126" />
<rect x="70" y="51" width="1" height="4" fill="#DF7126" />
<rect x="71" y="51" width="2" height="1" fill="#FFFFFF" />
<rect x="24" y="52" width="1" height="3" fill="#FBF236" />
<rect x="25" y="52" width="1" height="2" fill="#DF7126" />
<rect x="30" y="52" width="1" height="2" fill="#DF7126" />
<rect x="31" y="52" width="1" height="3" fill="#FBF236" />
<rect x="65" y="52" width="1" height="3" fill="#FFFFFF" />
<rect x="66" y="52" width="1" height="2" fill="#DF7126" />
<rect x="71" y="52" width="1" height="2" fill="#DF7126" />
<rect x="72" y="52" width="1" height="3" fill="#FFFFFF" />
<rect x="32" y="53" width="1" height="4" fill="#6ABE30" />
<rect x="44" y="53" width="1" height="7" fill="#6ABE30" />
<rect x="53" y="53" width="1" height="7" fill="#6ABE30" />
<rect x="25" y="54" width="1" height="2" fill="#FBF236" />
<rect x="30" y="54" width="1" height="2" fill="#FBF236" />
<rect x="33" y="54" width="2" height="3" fill="#6ABE30" />
<rect x="63" y="54" width="2" height="3" fill="#6ABE30" />
<rect x="66" y="54" width="1" height="2" fill="#FFFFFF" />
<rect x="71" y="54" width="1" height="2" fill="#FFFFFF" />
<rect x="26" y="55" width="1" height="2" fill="#FBF236" />
<rect x="29" y="55" width="1" height="2" fill="#FBF236" />
<rect x="31" y="55" width="1" height="1" fill="#6ABE30" />
<rect x="35" y="55" width="1" height="4" fill="#6ABE30" />
<rect x="45" y="55" width="1" height="8" fill="#6ABE30" />
<rect x="52" y="55" width="1" height="8" fill="#6ABE30" />
<rect x="62" y="55" width="1" height="4" fill="#6ABE30" />
<rect x="65" y="55" width="1" height="2" fill="#6ABE30" />
<rect x="67" y="55" width="1" height="2" fill="#FFFFFF" />
<rect x="70" y="55" width="1" height="2" fill="#FFFFFF" />
<rect x="27" y="56" width="2" height="1" fill="#FBF236" />
<rect x="36" y="56" width="1" height="4" fill="#6ABE30" />
<rect x="43" y="56" width="1" height="2" fill="#6ABE30" />
<rect x="54" y="56" width="1" height="2" fill="#6ABE30" />
<rect x="61" y="56" width="1" height="4" fill="#6ABE30" />
<rect x="68" y="56" width="2" height="1" fill="#FFFFFF" />
<rect x="34" y="57" width="1" height="1" fill="#6ABE30" />
<rect x="37" y="57" width="1" height="4" fill="#6ABE30" />
<rect x="46" y="57" width="1" height="9" fill="#6ABE30" />
<rect x="51" y="57" width="1" height="9" fill="#6ABE30" />
<rect x="60" y="57" width="1" height="4" fill="#6ABE30" />
<rect x="63" y="57" width="1" height="1" fill="#6ABE30" />
<rect x="38" y="58" width="1" height="5" fill="#6ABE30" />
<rect x="59" y="58" width="1" height="5" fill="#6ABE30" />
<rect x="39" y="59" width="1" height="6" fill="#6ABE30" />
<rect x="58" y="59" width="1" height="6" fill="#6ABE30" />
<rect x="40" y="60" width="1" height="7" fill="#6ABE30" />
<rect x="57" y="60" width="1" height="7" fill="#6ABE30" />
<rect x="41" y="62" width="1" height="7" fill="#6ABE30" />
<rect x="47" y="62" width="1" height="5" fill="#6ABE30" />
<rect x="50" y="62" width="1" height="5" fill="#6ABE30" />
<rect x="56" y="62" width="1" height="7" fill="#6ABE30" />
<rect x="42" y="64" width="1" height="7" fill="#6ABE30" />
<rect x="48" y="64" width="2" height="20" fill="#6ABE30" />
<rect x="55" y="64" width="1" height="7" fill="#6ABE30" />
<rect x="43" y="66" width="1" height="8" fill="#6ABE30" />
<rect x="46" y="66" width="1" height="1" fill="#4B692F" />
<rect x="51" y="66" width="1" height="1" fill="#4B692F" />
<rect x="54" y="66" width="1" height="8" fill="#6ABE30" />
<rect x="47" y="67" width="1" height="1" fill="#4B692F" />
<rect x="50" y="67" width="1" height="1" fill="#4B692F" />
<rect x="44" y="68" width="1" height="15" fill="#6ABE30" />
<rect x="47" y="68" width="1" height="20" fill="#6ABE30" />
<rect x="50" y="68" width="1" height="20" fill="#6ABE30" />
<rect x="53" y="68" width="1" height="15" fill="#6ABE30" />
<rect x="42" y="71" width="1" height="1" fill="#4B692F" />
<rect x="45" y="71" width="1" height="13" fill="#6ABE30" />
<rect x="52" y="71" width="1" height="13" fill="#6ABE30" />
<rect x="55" y="71" width="1" height="1" fill="#4B692F" />
<rect x="43" y="74" width="1" height="1" fill="#4B692F" />
<rect x="46" y="74" width="1" height="14" fill="#6ABE30" />
<rect x="51" y="74" width="1" height="14" fill="#6ABE30" />
<rect x="54" y="74" width="1" height="1" fill="#4B692F" />
<rect x="44" y="83" width="1" height="2" fill="#4B692F" />
<rect x="53" y="83" width="1" height="2" fill="#4B692F" />
<rect x="45" y="84" width="1" height="1" fill="#4B692F" />
<rect x="48" y="84" width="2" height="1" fill="#4B692F" />
<rect x="52" y="84" width="1" height="1" fill="#4B692F" />
<rect x="48" y="85" width="2" height="3" fill="#6ABE30" />
<rect x="45" y="87" width="1" height="1" fill="#5C3831" />
<rect x="52" y="87" width="1" height="1" fill="#5C3831" />
<rect x="46" y="88" width="6" height="1" fill="#5C3831" />
<rect x="46" y="89" width="6" height="5" fill="#6ABE30" />
<rect x="46" y="94" width="1" height="1" fill="#4B692F" />
<rect x="47" y="94" width="4" height="1" fill="#6ABE30" />
<rect x="51" y="94" width="1" height="1" fill="#4B692F" />
<rect x="47" y="95" width="1" height="1" fill="#4B692F" />
<rect x="48" y="95" width="2" height="1" fill="#6ABE30" />
<rect x="50" y="95" width="1" height="1" fill="#4B692F" />
</svg>